<svg width="45" height="45" viewBox="0 0 100 100" xmlns="http://www.w3.org/2000/svg">
  <g fill="#4A8B8B">
    <!-- Staff rod -->
    <rect x="46" y="8" width="8" height="70" rx="4" fill="#4A8B8B"/>

    <!-- Top circle -->
    <circle cx="50" cy="18" r="8" fill="#4A8B8B"/>

    <!-- Horizontal wings -->
    <rect x="25" y="42" width="50" height="6" rx="3" fill="#4A8B8B"/>

    <!-- Left snake -->
    <path d="M 35 48 Q 28 52, 26 60 Q 24 68, 28 74 Q 32 80, 36 84"
          stroke="#4A8B8B" stroke-width="5" fill="none" stroke-linecap="round"/>
    <circle cx="28" cy="54" r="3" fill="#4A8B8B"/>
    <circle cx="26" cy="64" r="3" fill="#4A8B8B"/>
    <circle cx="30" cy="76" r="3" fill="#4A8B8B"/>

    <!-- Right snake -->
    <path d="M 65 48 Q 72 52, 74 60 Q 76 68, 72 74 Q 68 80, 64 84"
          stroke="#4A8B8B" stroke-width="5" fill="none" stroke-linecap="round"/>
    <circle cx="72" cy="54" r="3" fill="#4A8B8B"/>
    <circle cx="74" cy="64" r="3" fill="#4A8B8B"/>
    <circle cx="70" cy="76" r="3" fill="#4A8B8B"/>

    <!-- Bowl at bottom -->
    <ellipse cx="50" cy="86" rx="14" ry="6" fill="#4A8B8B"/>
    <path d="M 36 86 L 36 92 Q 36 97, 42 97 L 58 97 Q 64 97, 64 92 L 64 86 Z" fill="#4A8B8B"/>
  </g>
</svg>
